# xmcd CD database file
#
# Track frame offsets:
#	150
#	18153
#	31489
#	39980
#	55886
#	71566
#	83230
#	96398
#	110326
#	125309
#	147446
#	157696
#	175918
#	193116
#
# Disc length: 2756 seconds
#
# Revision: 0
# Processed by: cddbd v1.5.2PL0 Copyright (c) Steve Scherf et al.
# Submitted via: CDex 1.70beta2
#
DISCID=b50ac20e
DTITLE=Bob Cat And The Night Owls - A Salty Taste Of The Blues
DYEAR=2007
DGENRE=Blues
TTITLE0=Bottles And Cans
TTITLE1=The Fact Remains
TTITLE2=The Lawyer
TTITLE3=Walk Through Hell
TTITLE4=Bustin My Ass
TTITLE5=Plain And Simple Truth
TTITLE6=It Ain't Up To You
TTITLE7=My Sister's Faces
TTITLE8=It Ain't Easy Being Me
TTITLE9=Just Hangin On
TTITLE10=Ain't Too Easy
TTITLE11=Blue Berry Pie
TTITLE12=Long Lonely Road
TTITLE13=Ricky's Gone
EXTD=YEAR: 2007
EXTT0=
EXTT1=
EXTT2=
EXTT3=
EXTT4=
EXTT5=
EXTT6=
EXTT7=
EXTT8=
EXTT9=
EXTT10=
EXTT11=
EXTT12=
EXTT13=
PLAYORDER=
